<?xml version="1.0" encoding="iso-8859-1"?>
<!-- Generator: Adobe Illustrator 19.0.0, SVG Export Plug-In . SVG Version: 6.00 Build 0)  -->
<svg version="1.1" id="Capa_1" xmlns="http://www.w3.org/2000/svg" x="0px" y="0px"
     viewBox="0 0 512 512" style="enable-background:new 0 0 512 512;" xml:space="preserve">
<polygon style="fill:#EDCE83;" points="496,504 496,270 316,270 243,152 196,152 132,8 16,8 16,504 "/>
    <rect x="16" y="484" style="fill:#EABE5C;" width="480" height="20"/>
    <path style="fill:#00E5FF;" d="M75,65L75,65c-8.284,0-15,6.716-15,15v15h30V80C90,71.716,83.284,65,75,65z"/>
    <g>
	<path style="fill:#998061;" d="M286,504h-60v-56c0-16.569,13.431-30,30-30l0,0c16.569,0,30,13.431,30,30V504z"/>
        <path style="fill:#998061;" d="M166,504h-60v-56c0-16.569,13.431-30,30-30l0,0c16.569,0,30,13.431,30,30V504z"/>
        <path style="fill:#998061;" d="M46,504H16v-86l0,0c16.569,0,30,13.431,30,30V504z"/>
        <path style="fill:#998061;" d="M346,504h60v-56c0-16.569-13.431-30-30-30l0,0c-16.569,0-30,13.431-30,30V504z"/>
        <path style="fill:#998061;" d="M466,504h30v-86l0,0c-16.569,0-30,13.431-30,30V504z"/>
        <path style="fill:#998061;" d="M286,386h-60v-56c0-16.569,13.431-30,30-30l0,0c16.569,0,30,13.431,30,30V386z"/>
        <path style="fill:#998061;" d="M166,386h-60v-56c0-16.569,13.431-30,30-30l0,0c16.569,0,30,13.431,30,30V386z"/>
        <path style="fill:#998061;" d="M46,386H16v-86l0,0c16.569,0,30,13.431,30,30V386z"/>
        <path style="fill:#998061;" d="M346,386h60v-56c0-16.569-13.431-30-30-30l0,0c-16.569,0-30,13.431-30,30V386z"/>
        <path style="fill:#998061;" d="M466,386h30v-86l0,0c-16.569,0-30,13.431-30,30V386z"/>
        <path style="fill:#998061;" d="M166,268h-60v-56c0-16.569,13.431-30,30-30l0,0c16.569,0,30,13.431,30,30V268z"/>
        <path style="fill:#998061;" d="M46,268H16v-86l0,0c16.569,0,30,13.431,30,30V268z"/>
</g>
    <g>
	<path style="fill:#8E6D48;" d="M256,418c-16.569,0-30,13.431-30,30v20c0-16.569,13.431-30,30-30s30,13.431,30,30v-20
		C286,431.431,272.569,418,256,418z"/>
        <path style="fill:#8E6D48;" d="M136,418c-16.569,0-30,13.431-30,30v20c0-16.569,13.431-30,30-30s30,13.431,30,30v-20
		C166,431.431,152.569,418,136,418z"/>
        <path style="fill:#8E6D48;" d="M16,418v20c16.569,0,30,13.431,30,30v-20C46,431.431,32.569,418,16,418z"/>
        <path style="fill:#8E6D48;" d="M376,418c-16.569,0-30,13.431-30,30v20c0-16.569,13.431-30,30-30s30,13.431,30,30v-20
		C406,431.431,392.569,418,376,418z"/>
        <path style="fill:#8E6D48;" d="M466,448v20c0-16.569,13.431-30,30-30v-20C479.431,418,466,431.431,466,448z"/>
        <path style="fill:#8E6D48;" d="M256,300c-16.569,0-30,13.431-30,30v20c0-16.569,13.431-30,30-30s30,13.431,30,30v-20
		C286,313.431,272.569,300,256,300z"/>
        <path style="fill:#8E6D48;" d="M136,300c-16.569,0-30,13.431-30,30v20c0-16.569,13.431-30,30-30s30,13.431,30,30v-20
		C166,313.431,152.569,300,136,300z"/>
        <path style="fill:#8E6D48;" d="M16,300v20c16.569,0,30,13.431,30,30v-20C46,313.431,32.569,300,16,300z"/>
        <path style="fill:#8E6D48;" d="M376,300c-16.569,0-30,13.431-30,30v20c0-16.569,13.431-30,30-30s30,13.431,30,30v-20
		C406,313.431,392.569,300,376,300z"/>
        <path style="fill:#8E6D48;" d="M466,330v20c0-16.569,13.431-30,30-30v-20C479.431,300,466,313.431,466,330z"/>
        <path style="fill:#8E6D48;" d="M136,182c-16.569,0-30,13.431-30,30v20c0-16.569,13.431-30,30-30s30,13.431,30,30v-20
		C166,195.431,152.569,182,136,182z"/>
        <path style="fill:#8E6D48;" d="M16,182v20c16.569,0,30,13.431,30,30v-20C46,195.431,32.569,182,16,182z"/>
</g>
    <path style="fill:#00E5FF;" d="M471.25,149c16.43,0,29.75-13.32,29.75-29.75S487.68,89.5,471.25,89.5c-2,0-3.953,0.201-5.843,0.577
	C458.984,74.76,443.85,64,426.2,64c-13.834,0-26.12,6.614-33.881,16.848c-2.975-0.999-6.157-1.548-9.469-1.548
	c-15.579,0-28.353,11.977-29.636,27.224c-0.32-0.014-0.641-0.024-0.964-0.024c-11.736,0-21.25,9.514-21.25,21.25
	S340.514,149,352.25,149H471.25z"/>
    <path style="fill:#40C4FF;" d="M471.25,129h-119c-8.12,0-15.17-4.557-18.747-11.25c-1.594,2.981-2.503,6.383-2.503,10
	c0,11.736,9.514,21.25,21.25,21.25h119c16.43,0,29.75-13.32,29.75-29.75c0-3.509-0.612-6.874-1.728-10
	C495.164,120.76,484.171,129,471.25,129z"/>
    <path style="fill:#00E5FF;" d="M238,78c-9.941,0-18-8.059-18-18s8.059-18,18-18c0.201,0,0.396,0.024,0.596,0.03
	C241.364,28.322,253.476,18,268,18c10.505,0,19.742,5.403,25.101,13.577C295.746,30.574,298.603,30,301.6,30
	c13.255,0,24,10.745,24,24s-10.745,24-24,24H238z"/>
    <path style="fill:#40C4FF;" d="M301.6,58H238c-6.24,0-11.735-3.177-14.965-8C221.12,52.861,220,56.299,220,60
	c0,9.941,8.059,18,18,18h63.6c13.255,0,24-10.745,24-24c0-3.57-0.785-6.955-2.184-10C319.624,52.26,311.285,58,301.6,58z"/>
    <path d="M512,277.5v-15H320.179l-73-118h-46.306l-64-144H0v15h8.5v129H0v15h8.5v103H0v15h8.5v103H0v15h8.5v101H0v15h512v-15h-8.5
	v-101h8.5v-15h-8.5v-103H512z M23.5,15.5h103.626l57.333,129H23.5V15.5z M23.5,190.79c8.729,3.096,15,11.432,15,21.21v50.5h-15
	V190.79z M23.5,308.79c8.729,3.096,15,11.432,15,21.21v50.5h-15V308.79z M38.5,496.5h-15v-69.71c8.729,3.096,15,11.432,15,21.21
	V496.5z M68.5,496.5h-15V448c0-18.11-12.904-33.261-30-36.745V395.5h45V496.5z M68.5,380.5h-15V330c0-18.11-12.904-33.261-30-36.745
	V277.5h45V380.5z M68.5,262.5h-15V212c0-18.11-12.904-33.261-30-36.745V159.5h45V262.5z M158.5,496.5h-45V448
	c0-12.407,10.094-22.5,22.5-22.5s22.5,10.093,22.5,22.5V496.5z M188.5,496.5h-15V448c0-20.678-16.822-37.5-37.5-37.5
	S98.5,427.322,98.5,448v48.5h-15v-101h105V496.5z M113.5,380.5V330c0-12.407,10.094-22.5,22.5-22.5s22.5,10.093,22.5,22.5v50.5
	H113.5z M188.5,380.5h-15V330c0-20.678-16.822-37.5-37.5-37.5S98.5,309.322,98.5,330v50.5h-15v-103h105V380.5z M113.5,262.5V212
	c0-12.407,10.094-22.5,22.5-22.5s22.5,10.093,22.5,22.5v50.5H113.5z M188.5,262.5h-15V212c0-20.678-16.822-37.5-37.5-37.5
	S98.5,191.322,98.5,212v50.5h-15v-103h105V262.5z M203.5,159.5h35.32l63.721,103H203.5V159.5z M278.5,496.5h-45V448
	c0-12.407,10.094-22.5,22.5-22.5s22.5,10.093,22.5,22.5V496.5z M308.5,496.5h-15V448c0-20.678-16.822-37.5-37.5-37.5
	s-37.5,16.822-37.5,37.5v48.5h-15v-101h105V496.5z M233.5,380.5V330c0-12.407,10.094-22.5,22.5-22.5s22.5,10.093,22.5,22.5v50.5
	H233.5z M308.5,380.5h-15V330c0-20.678-16.822-37.5-37.5-37.5s-37.5,16.822-37.5,37.5v50.5h-15v-103h105V380.5z M398.5,496.5h-45
	V448c0-12.407,10.094-22.5,22.5-22.5s22.5,10.093,22.5,22.5V496.5z M428.5,496.5h-15V448c0-20.678-16.822-37.5-37.5-37.5
	s-37.5,16.822-37.5,37.5v48.5h-15v-101h105V496.5z M353.5,380.5V330c0-12.407,10.094-22.5,22.5-22.5s22.5,10.093,22.5,22.5v50.5
	H353.5z M428.5,380.5h-15V330c0-20.678-16.822-37.5-37.5-37.5s-37.5,16.822-37.5,37.5v50.5h-15v-103h105V380.5z M488.5,496.5h-15
	V448c0-9.777,6.271-18.114,15-21.21V496.5z M488.5,411.255c-17.096,3.484-30,18.635-30,36.745v48.5h-15v-101h45V411.255z
	 M488.5,380.5h-15V330c0-9.777,6.271-18.114,15-21.21V380.5z M488.5,293.255c-17.096,3.484-30,18.635-30,36.745v50.5h-15v-103h45
	V293.255z"/>
    <path d="M75,57.5c-12.406,0-22.5,10.093-22.5,22.5v22.5h45V80C97.5,67.593,87.406,57.5,75,57.5z M82.5,87.5h-15V80
	c0-4.136,3.364-7.5,7.5-7.5s7.5,3.364,7.5,7.5V87.5z"/>
    <path d="M323.5,127.75c0,15.853,12.897,28.75,28.75,28.75h119c20.54,0,37.25-16.71,37.25-37.25S491.79,82,471.25,82
	c-0.479,0-0.958,0.009-1.438,0.028C461.034,66.354,444.477,56.5,426.2,56.5c-14.073,0-27.149,5.744-36.587,15.919
	c-2.226-0.412-4.487-0.619-6.764-0.619c-17.002,0-31.729,11.744-35.997,27.708C333.571,102.041,323.5,113.741,323.5,127.75z
	 M352.25,114c0.212,0,0.422,0.008,0.632,0.017l7.201,0.319l0.604-7.183C361.648,95.74,371.383,86.8,382.85,86.8
	c2.41,0,4.793,0.39,7.083,1.158l5.107,1.715l3.256-4.293c6.688-8.82,16.858-13.879,27.904-13.879
	c14.144,0,26.818,8.431,32.291,21.478l2.37,5.652l6.012-1.198c1.44-0.287,2.913-0.433,4.377-0.433c12.269,0,22.25,9.981,22.25,22.25
	s-9.981,22.25-22.25,22.25h-119c-7.582,0-13.75-6.168-13.75-13.75S344.668,114,352.25,114z"/>
    <path d="M238,85.5h63.6c17.369,0,31.5-14.131,31.5-31.5s-14.131-31.5-31.5-31.5c-1.893,0-3.776,0.173-5.637,0.517
	C288.899,15.096,278.795,10.5,268,10.5c-15.844,0-29.842,10.03-35.192,24.531C221.229,37.437,212.5,47.718,212.5,60
	C212.5,74.061,223.939,85.5,238,85.5z M237.87,49.501c0.155,0.01,0.312,0.02,0.469,0.025l6.351,0.218l1.258-6.229
	C248.056,33.076,257.33,25.5,268,25.5c7.607,0,14.646,3.809,18.829,10.189l3.303,5.036l5.631-2.136
	c1.904-0.723,3.868-1.089,5.837-1.089c9.098,0,16.5,7.402,16.5,16.5s-7.402,16.5-16.5,16.5H238c-5.79,0-10.5-4.71-10.5-10.5
	C227.5,54.254,232.14,49.571,237.87,49.501z"/>
    <g>
	<path style="fill:#FFFFFF;" d="M260.116,250.946l-7.892-12.756l12.756-7.892l7.892,12.756L260.116,250.946z M244.333,225.433
		l-27.521-44.487l12.756-7.892l27.521,44.487L244.333,225.433z"/>
        <path style="fill:#FFFFFF;" d="M143,129.5h-15v-15h15V129.5z M113,129.5H98v-15h15V129.5z M83,129.5H68v-15h15V129.5z M53,129.5H38
		v-15h15V129.5z"/>
        <path style="fill:#FFFFFF;" d="M113,45.5H98v-15h15V45.5z M83,45.5H68v-15h15V45.5z M53,45.5H38v-15h15V45.5z"/>
        <rect x="128.5" y="204.5" style="fill:#FFFFFF;" width="15" height="15"/>
        <rect x="128.5" y="322.5" style="fill:#FFFFFF;" width="15" height="15"/>
        <rect x="128.5" y="440.5" style="fill:#FFFFFF;" width="15" height="15"/>
        <rect x="248.5" y="322.5" style="fill:#FFFFFF;" width="15" height="15"/>
        <rect x="248.5" y="440.5" style="fill:#FFFFFF;" width="15" height="15"/>
        <rect x="368.5" y="322.5" style="fill:#FFFFFF;" width="15" height="15"/>
        <rect x="368.5" y="440.5" style="fill:#FFFFFF;" width="15" height="15"/>
        <path style="fill:#FFFFFF;"
              d="M473,126.5h-36v-15h36V126.5z M422,126.5h-15v-15h15V126.5z M392,126.5h-15v-15h15V126.5z"/>
        <rect x="261.6" y="40.5" style="fill:#FFFFFF;" width="15" height="15"/>
</g>
    <g>
</g>
    <g>
</g>
    <g>
</g>
    <g>
</g>
    <g>
</g>
    <g>
</g>
    <g>
</g>
    <g>
</g>
    <g>
</g>
    <g>
</g>
    <g>
</g>
    <g>
</g>
    <g>
</g>
    <g>
</g>
    <g>
</g>
</svg>
