<svg height="483pt" viewBox="-25 0 483 483.312" width="483pt" xmlns="http://www.w3.org/2000/svg">
    <path d="m304.15625 139.3125-16 16h-144l-16-16 16-16h144zm0 0" fill="#e6e9ed"/>
    <path d="m288.15625 75.3125-24 24-16-8h-16v32h-32v-32h-16l-16 8-24-24 24-24 16 8h16l-8-24 24-24 24 24-8 24h16l16-8zm0 0"
          fill="#ffc729"/>
    <path d="m251.355469 191.230469c-11.359375-2.558594-23.121094-3.917969-35.199219-3.917969-12.082031 0-23.839844 1.359375-35.199219 3.917969-4.320312.960937-8.5625 2.082031-12.800781 3.441406v-39.359375h96v39.359375c-4.242188-1.359375-8.480469-2.480469-12.800781-3.441406zm0 0"
          fill="#aab2bd"/>
    <path d="m392.15625 443.3125c8.800781 0 16 7.199219 16 16 0 4.398438-1.761719 8.398438-4.71875 11.28125-2.882812 2.957031-6.882812 4.71875-11.28125 4.71875h-352c-8.800781 0-16-7.199219-16-16 0-4.402344 1.757812-8.402344 4.71875-11.28125 2.882812-2.960938 6.882812-4.71875 11.28125-4.71875zm0 0"
          fill="#e6e9ed"/>
    <g fill="#fcd770">
        <path d="m392.15625 395.3125v48h-80c8.800781 0 16-7.199219 16-16v-48h48c8.800781 0 16 7.199219 16 16zm0 0"/>
        <path d="m280.15625 443.3125h-128c8.800781 0 16-7.199219 16-16v-48h96v48c0 8.800781 7.199219 16 16 16zm0 0"/>
        <path d="m120.15625 443.3125h-80v-48c0-8.800781 7.199219-16 16-16h48v48c0 8.800781 7.199219 16 16 16zm0 0"/>
    </g>
    <path d="m328.15625 379.3125v48c0 8.800781-7.199219 16-16 16h-32c-8.800781 0-16-7.199219-16-16v-48c0-8.800781 7.199219-16 16-16h32c8.800781 0 16 7.199219 16 16zm0 0"
          fill="#e6e9ed"/>
    <path d="m168.15625 379.3125v48c0 8.800781-7.199219 16-16 16h-32c-8.800781 0-16-7.199219-16-16v-48c0-8.800781 7.199219-16 16-16h32c8.800781 0 16 7.199219 16 16zm0 0"
          fill="#e6e9ed"/>
    <path d="m270.394531 291.390625c-3.4375-12.71875-7.917969-25.199219-13.199219-37.199219-7.757812-17.597656-17.359374-34.320312-28.800781-50.078125l-12.238281-16.800781c12.078125 0 23.839844 1.359375 35.199219 3.917969l1.519531 1.921875c12.480469 15.601562 23.121094 32.398437 31.761719 50.160156 8.71875 17.839844 15.519531 36.640625 20.078125 56 4.960937 20.480469 7.441406 41.597656 7.441406 62.960938v1.039062h-32c0-24.480469-3.28125-48.640625-9.761719-71.921875zm0 0"
          fill="#ffc729"/>
    <path d="m161.914062 291.390625c-6.476562 23.28125-9.757812 47.441406-9.757812 71.921875h-32v-1.039062c0-21.363282 2.480469-42.480469 7.441406-62.882813 4.558594-19.359375 11.277344-38.160156 20.078125-56.078125 8.640625-17.761719 19.28125-34.558594 31.761719-50.160156l1.519531-1.921875c11.359375-2.558594 23.117188-3.917969 35.199219-3.917969l-12.242188 16.800781c-11.4375 15.757813-21.117187 32.558594-28.796874 50.160157-5.359376 12-9.761719 24.398437-13.203126 37.117187zm0 0"
          fill="#ffc729"/>
    <path d="m366.15625 291.472656c-8.160156-21.679687-20.800781-41.199218-36.878906-57.28125-5.363282-5.359375-11.042969-10.320312-17.121094-14.878906-14.320312-10.71875-30.558594-19.199219-48-24.640625-4.242188-1.359375-8.480469-2.480469-12.800781-3.441406l1.519531 1.921875c12.480469 15.601562 23.121094 32.398437 31.761719 50.160156 8.71875 17.839844 15.519531 36.640625 20.078125 56 4.960937 20.480469 7.441406 41.597656 7.441406 62.960938v1.039062c8.800781 0 16 7.199219 16 16h48v-32c0-19.601562-3.519531-38.480469-10-55.839844zm0 0"
          fill="#ffeaa7"/>
    <path d="m257.195312 254.191406c-7.757812-17.597656-17.359374-34.320312-28.800781-50.078125l-12.238281-16.800781-12.242188 16.800781c-11.4375 15.757813-21.117187 32.558594-28.796874 50.160157-5.359376 12-9.761719 24.398437-13.203126 37.117187-6.476562 23.28125-9.757812 47.441406-9.757812 71.921875 8.800781 0 16 7.199219 16 16h96c0-8.800781 7.199219-16 16-16 0-24.480469-3.28125-48.640625-9.761719-71.921875-3.4375-12.71875-7.917969-25.199219-13.199219-37.199219zm0 0"
          fill="#ffeaa7"/>
    <path d="m180.957031 191.230469c-4.320312.960937-8.5625 2.082031-12.800781 3.441406-17.441406 5.441406-33.679688 13.921875-48 24.640625-24.320312 18.238281-43.199219 43.199219-54 72.160156-6.480469 17.359375-10 36.238282-10 55.839844v32h48c0-8.800781 7.199219-16 16-16v-1.039062c0-21.363282 2.480469-42.480469 7.441406-62.882813 4.558594-19.359375 11.277344-38.160156 20.078125-56.078125 8.640625-17.761719 19.28125-34.558594 31.761719-50.160156zm0 0"
          fill="#ffeaa7"/>
    <path d="m400.15625 436.785156v-41.472656c0-10.417969-6.710938-19.214844-16-22.527344v-25.472656c0-72.976562-46.855469-135.066406-112-158.199219v-25.800781h19.3125l24-24-24-24h-51.3125v-16h6.113281l19.46875 9.734375 33.730469-33.734375-33.738281-33.738281-19.460938 9.738281h-3.007812l6.054687-18.160156-33.160156-33.152344-33.160156 33.152344 6.054687 18.160156h-3.007812l-19.472657-9.738281-33.726562 33.738281 33.734375 33.734375 19.464844-9.734375h6.113281v16h-51.3125l-24 24 24 24h19.3125v25.800781c-65.144531 23.132813-112 85.222657-112 158.199219v25.472656c-9.289062 3.3125-16 12.109375-16 22.527344v41.472656c-9.289062 3.3125-16 12.109375-16 22.527344 0 13.230469 10.769531 24 24 24h352c13.230469 0 24-10.769531 24-24 0-10.417969-6.710938-19.214844-16-22.527344zm-288-9.472656v-48c0-4.410156 3.582031-8 8-8h32c4.414062 0 8 3.589844 8 8v48c0 4.40625-3.585938 8-8 8h-32c-4.417969 0-8-3.59375-8-8zm32.457031-195.367188c-5.824219-4.007812-10.015625-7.898437-12.855469-10.953124 8.796876-5.894532 18.277344-10.816407 28.238282-14.792969-5.617188 8.304687-10.71875 16.914062-15.382813 25.746093zm40.910157-33.53125c4.671874-.957031 9.441406-1.660156 14.257812-2.183593l-2.335938 3.210937c-33.28125 45.765625-51.394531 99.519532-52.976562 155.871094h-16.160156c1.519531-56.898438 21.671875-112.359375 57.214844-156.898438zm86.792968 7.777344c9.96875 3.984375 19.457032 8.90625 28.253906 14.800782-2.839843 3.046874-7.03125 6.9375-12.871093 10.953124-4.664063-8.832031-9.773438-17.441406-15.382813-25.753906zm-25.535156-7.777344c35.558594 44.546876 55.710938 100.011719 57.230469 156.898438h-16.160157c-1.589843-56.351562-19.695312-110.113281-52.976562-155.871094l-2.335938-3.210937c4.808594.523437 9.570313 1.226562 14.242188 2.183593zm114.949219 105.867188c.042969-.050781.058593-.074219.097656-.113281 4.0625 13.6875 6.328125 28.152343 6.328125 43.144531v24h-33.472656c-2.429688-6.816406-7.816406-12.167969-14.640625-14.558594-.375-18.65625-2.613281-37.179687-6.679688-55.265625 1.503907-1.625 2.519531-2.175781 4.023438-2.175781 2.183593 0 3.273437 1 6.425781 4.96875 3.488281 4.390625 8.75 11.03125 18.960938 11.03125 10.207031 0 15.480468-6.640625 18.957031-11.03125zm-104.101563 67.03125h-82.945312c-2.382813-6.695312-7.617188-11.992188-14.273438-14.449219.441406-18.160156 2.601563-36.054687 6.65625-53.449219.355469.394532.648438.699219 1.058594 1.160157 3.726562 4.273437 9.375 10.738281 20 10.738281 10.621094 0 16.269531-6.464844 20.015625-10.738281 3.480469-3.972657 4.863281-5.261719 7.96875-5.261719 3.109375 0 4.496094 1.289062 7.992187 5.273438 3.742188 4.269531 9.390626 10.726562 20.03125 10.726562 10.632813 0 16.277344-6.457031 20.023438-10.726562.414062-.472657.726562-.792969 1.085938-1.195313 4.058593 17.402344 6.226562 35.296875 6.664062 53.472656-6.664062 2.457031-11.886719 7.753907-14.277344 14.449219zm-41.472656-170.402344 5.777344 7.9375c9.199218 12.65625 17.054687 26.007813 23.78125 39.832032-9.261719 1.746093-19.167969 2.632812-29.558594 2.632812-10.398438 0-20.289062-.886719-29.558594-2.632812 6.726563-13.816407 14.582032-27.175782 23.78125-39.832032zm-36.367188 62.640625c11.367188 2.449219 23.527344 3.761719 36.367188 3.761719 12.832031 0 25.007812-1.3125 36.367188-3.761719 3.089843 7.503907 5.710937 15.160157 8.082031 22.914063-3.738281 2.230468-6.417969 5.222656-8.480469 7.574218-3.488281 3.984376-4.882812 5.273438-7.992188 5.273438-3.121093 0-4.503906-1.289062-8-5.273438-3.746093-4.269531-9.394531-10.726562-20.023437-10.726562-10.625 0-16.273437 6.464844-20.015625 10.734375-3.472656 3.976563-4.867188 5.265625-7.96875 5.265625-3.105469 0-4.488281-1.289062-7.960938-5.265625-2.054687-2.351563-4.726562-5.335937-8.457031-7.574219 2.367188-7.746094 4.992188-15.417968 8.082031-22.921875zm-3.632812 163.761719v-40h80v40c0 2.816406.574219 5.488281 1.472656 8h-82.945312c.894531-2.511719 1.472656-5.183594 1.472656-8zm96 0v-48c0-4.410156 3.582031-8 8-8h32c4.414062 0 8 3.589844 8 8v48c0 4.40625-3.585938 8-8 8h-32c-4.417969 0-8-3.59375-8-8zm64 0v-40h40c4.414062 0 8 3.589844 8 8v40h-49.472656c.894531-2.511719 1.472656-5.183594 1.472656-8zm19.671875-139.863281c-2.847656 2.160156-4.953125 4.773437-6.625 6.886719-3.160156 3.976562-4.238281 4.976562-6.429687 4.976562-2.195313 0-3.273438-1-6.433594-4.976562-3.480469-4.382813-8.734375-11.023438-18.953125-11.023438-3.222657 0-5.910157.710938-8.253907 1.757812-3.816406-13.214843-8.585937-26.140624-14.296874-38.65625 8.679687-5.695312 14.695312-11.421874 18.566406-15.773437 18.265625 15.238281 32.898437 34.671875 42.425781 56.808594zm-173.558594-204.136719-12.53125 6.261719-14.269531-14.261719 14.261719-14.265625 12.539062 6.265625h28.992188l-9.945313-29.839844 14.839844-14.847656 14.839844 14.847656-9.945313 29.839844h28.992188l12.527343-6.265625 14.273438 14.265625-14.265625 14.261719-12.535156-6.261719h-25.886719v32h-16v-32zm-34.800781 64-8-8 8-8h137.375l8 8-8 8zm28.6875 16h80v21.015625c-12.847656-3.160156-26.191406-5.015625-40-5.015625s-27.152344 1.855469-40 5.015625zm-57.257812 67.320312c3.875 4.351563 9.890624 10.078126 18.570312 15.773438-5.722656 12.539062-10.496094 25.480469-14.3125 38.714844-2.359375-1.074219-5.089844-1.808594-8.375-1.808594-10.203125 0-15.464844 6.640625-18.9375 11.03125-3.144531 3.96875-4.214844 4.96875-6.390625 4.96875-2.167969 0-3.242187-1-6.378906-4.960938-1.664063-2.113281-3.757813-4.726562-6.597657-6.886718 9.527344-22.144532 24.160157-41.585938 42.421876-56.832032zm-48.421876 73.574219c.023438.023438.03125.039063.054688.074219 3.464844 4.382812 8.730469 11.03125 18.921875 11.03125 10.199219 0 15.460937-6.640625 18.933594-11.03125 3.144531-3.96875 4.226562-4.96875 6.394531-4.96875 1.542969 0 2.558594.558594 4.132812 2.289062-4.039062 18.054688-6.269531 36.527344-6.644531 55.140626-6.832031 2.394531-12.21875 7.746093-14.640625 14.5625h-33.472656v-24c0-14.96875 2.265625-29.417969 6.320312-43.097657zm-14.320312 83.105469h40v40c0 2.816406.574219 5.488281 1.472656 8h-49.472656v-40c0-4.410156 3.582031-8 8-8zm336 80h-352c-4.417969 0-8-3.59375-8-8 0-4.410156 3.582031-8 8-8h352c4.414062 0 8 3.589844 8 8 0 4.40625-3.585938 8-8 8zm0 0"/>
    <path d="m64.15625 403.3125h16v16h-16zm0 0"/>
    <path d="m352.15625 403.3125h16v16h-16zm0 0"/>
    <path d="m192.15625 403.3125h16v16h-16zm0 0"/>
    <path d="m224.15625 403.3125h16v16h-16zm0 0"/>
    <path d="m344.15625 139.3125h16v16h-16zm0 0"/>
    <path d="m328.15625 155.3125h16v16h-16zm0 0"/>
    <path d="m344.15625 171.3125h16v16h-16zm0 0"/>
    <path d="m360.15625 155.3125h16v16h-16zm0 0"/>
    <path d="m400.15625 43.3125h16v16h-16zm0 0"/>
    <path d="m384.15625 59.3125h16v16h-16zm0 0"/>
    <path d="m400.15625 75.3125h16v16h-16zm0 0"/>
    <path d="m416.15625 59.3125h16v16h-16zm0 0"/>
    <path d="m72.15625 139.3125h16v16h-16zm0 0"/>
    <path d="m88.15625 155.3125h16v16h-16zm0 0"/>
    <path d="m72.15625 171.3125h16v16h-16zm0 0"/>
    <path d="m56.15625 155.3125h16v16h-16zm0 0"/>
    <path d="m16.15625 43.3125h16v16h-16zm0 0"/>
    <path d="m32.15625 59.3125h16v16h-16zm0 0"/>
    <path d="m16.15625 75.3125h16v16h-16zm0 0"/>
    <path d="m.15625 59.3125h16v16h-16zm0 0"/>
    <path d="m328.15625 83.3125h16v16h-16zm0 0"/>
    <path d="m96.15625 51.3125h16v16h-16zm0 0"/>
</svg>