<svg height="512pt" viewBox="0 -25 512 512" width="512pt" xmlns="http://www.w3.org/2000/svg">
    <path d="m296.578125 261.4375v32.0625l64.125 64.125v72.140625c0 13.28125-10.765625 24.046875-24.046875 24.046875h-208.40625c-13.28125 0-24.046875-10.765625-24.046875-24.046875v-72.140625l64.125-64.125v-32.0625"
          fill="#9bb6cc"/>
    <path d="m360.703125 357.625v72.140625c0 13.28125-10.765625 24.046875-24.046875 24.046875h-208.40625c-13.28125 0-24.046875-10.765625-24.046875-24.046875v-72.140625"
          fill="#627b8c"/>
    <g fill="#fff">
        <path d="m192.375 398.207031h16.03125v15.027344h-16.03125zm0 0"/>
        <path d="m224.4375 398.207031h16.03125v15.027344h-16.03125zm0 0"/>
        <path d="m256.5 398.207031h16.03125v15.027344h-16.03125zm0 0"/>
    </g>
    <path d="m312.609375 261.4375h-160.3125c-4.425781 0-8.015625-3.585938-8.015625-8.015625v-16.03125c0-4.425781 3.589844-8.015625 8.015625-8.015625h160.3125c4.429687 0 8.015625 3.589844 8.015625 8.015625v16.03125c0 4.429687-3.585938 8.015625-8.015625 8.015625zm0 0"
          fill="#627b8c"/>
    <path d="m432.84375 28.984375h72.140625v8.015625l-160.3125 160.3125h-80.15625" fill="#fef089"/>
    <path d="m432.84375 28.984375h72.140625v8.015625l-160.3125 160.3125h-80.15625" fill="#fef089"/>
    <path d="m456.890625 28.984375-168.328125 168.328125h-24.046875l168.328125-168.328125zm0 0" fill="#eab61b"/>
    <path d="m347.785156 205.328125 164.214844-165.214844v-18.140625h-61.011719l11.21875-11.472656-10.628906-10.5-222.234375 222.363281h-77.046875c-8.5625 0-16.03125 6.464844-16.03125 15.027344v16.03125c0 8.566406 7.46875 16.03125 16.03125 16.03125h8.015625v20.9375l-64.125 64.125v75.25c0 6.058594 2.222656 12.023437 5.191406 17.035156h-101.378906v15.027344h464.90625v-15.027344h-101.378906c2.972656-5.011719 4.191406-10.976562 4.191406-17.035156v-75.25l-64.125-64.125v-20.9375h9.015625c8.566406 0 15.03125-7.464844 15.03125-16.03125v-16.03125c0-8.5625-6.464844-15.027344-15.03125-15.027344h-62.015625l17.035156-17.035156zm88.171875-168.328125h58.902344l-49.09375 49.097656h-58.902344zm-64.125 64.125h58.902344l-41.078125 41.082031h-58.902344zm-56.109375 56.109375h58.902344l-33.0625 33.066406h-58.902344zm36.964844 203.503906v69.027344c0 9.117187-6.914062 17.035156-16.03125 17.035156h-21.222656c2.972656-5.011719 4.691406-10.976562 4.691406-17.035156h-15.027344c0 9.117187-7.417968 17.035156-16.535156 17.035156h-112.21875c-9.113281 0-16.53125-7.917969-16.53125-17.035156h-15.03125c0 6.058594 1.722656 12.023437 4.691406 17.035156h-21.222656c-9.117188 0-17.03125-7.917969-17.03125-17.035156v-64.125h217.421875v-15.027344h-206.296875l53-54v-27.160156h113.21875v17.035156h-96.1875v15.027344h101.09375zm-40.578125-123.347656c.277344 0 .5.226563.5.503906v16.03125c0 .273438-.222656.5-.5.5h-160.3125c-.277344 0-.5-.226562-.5-.5v-16.03125c0-.277343.222656-.503906.5-.503906zm0 0"/>
</svg>