<?xml version="1.0" encoding="iso-8859-1"?>
<!-- Generator: Adobe Illustrator 19.0.0, SVG Export Plug-In . SVG Version: 6.00 Build 0)  -->
<svg version="1.1" id="Capa_1" xmlns="http://www.w3.org/2000/svg" x="0px" y="0px"
     viewBox="0 0 512 512" style="enable-background:new 0 0 512 512;" xml:space="preserve">
<polygon style="fill:#C3C7C9;"
         points="350.234,7.562 350.234,41.83 324.533,41.83 187.465,41.83 161.764,41.83 161.764,7.562 "/>
    <path style="fill:#F04B4D;" d="M366.683,273.134c0.514,5.654,0.686,11.308,0.686,17.133c0,21.246-2.827,41.549-7.881,60.139
	l-0.686-0.171H178.897L155.595,360.6c-5.397-16.363-8.995-34.267-10.28-53.2h76.416v-34.267h42.834V307.4h51.401v-34.267
	L366.683,273.134L366.683,273.134z"/>
    <path style="fill:#9A7C5A;" d="M358.801,350.235l0.686,0.171c-8.652,31.783-24.072,58.597-43.52,76.844l17.133,77.187H178.897
	l17.133-77.187c-17.305-16.277-31.44-39.322-40.435-66.65l23.302-10.366L358.801,350.235L358.801,350.235z"/>
    <path style="fill:#C59C73;" d="M352.976,210.424c-10.537-27.5-26.558-50.03-45.747-64.593l11.565-69.734l5.739-34.267H187.464
	l5.739,34.267l11.565,69.734c-19.19,14.563-35.21,37.094-45.747,64.593c-1.456,3.683-2.827,7.453-4.026,11.308
	c-6.682,20.818-10.366,44.034-10.366,68.535c0,5.825,0.171,11.48,0.686,17.133h76.416v-34.267h42.834V307.4h51.401v-34.267h50.715
	C365.14,250.517,360.342,229.271,352.976,210.424z"/>
    <path style="fill:#CA3F41;" d="M221.074,350.235c-3.676-13.472-6.203-27.81-7.223-42.834h-68.535
	c1.285,18.932,4.883,36.838,10.281,53.199l23.301-10.365L221.074,350.235L221.074,350.235z"/>
    <path style="fill:#7F6649;" d="M224.131,360.6c-1.114-3.378-2.101-6.861-3.057-10.365h-42.176L155.597,360.6
	c8.995,27.328,23.13,50.373,40.435,66.65l-17.133,77.187h68.535l17.133-77.187C247.26,410.974,233.126,387.929,224.131,360.6z"/>
    <path style="fill:#A88662;" d="M213.165,290.267c0-24.501,3.683-47.717,10.366-68.535c1.199-3.855,2.57-7.625,4.026-11.308
	c10.537-27.5,26.558-50.03,45.747-64.593l-11.565-69.734L256,41.83h-68.535l5.739,34.267l11.565,69.734
	c-19.19,14.563-35.21,37.094-45.747,64.593c-1.456,3.683-2.827,7.453-4.026,11.308c-6.682,20.818-10.366,44.034-10.366,68.535
	c0,5.825,0.171,11.48,0.686,17.133h68.535C213.336,301.746,213.165,296.093,213.165,290.267z"/>
    <path style="fill:#9A7C5A;" d="M359.486,350.405c0.015-0.056,0.025-0.115,0.04-0.171h-0.726L359.486,350.405z"/>
    <path style="fill:#231F20;" d="M400.63,68.535h-50.397v15.125h35.273v83.54l-29.906,29.905
	c-10.143-22.395-23.857-41.003-40.18-54.438l10.832-65.322l4.683-27.954h26.862V0H230.299v15.125h112.372v19.143H169.326V15.125
	h35.271V0h-50.395v49.392h26.862l3.206,19.143h-72.902v104.93l38.85,38.85c-0.903,2.469-1.715,4.836-2.422,7.108
	c-7.119,22.176-10.727,46.012-10.727,70.846c0,6.744,0.225,12.38,0.709,17.73c1.297,19.01,4.875,37.504,10.636,54.968
	c8.787,26.698,22.338,49.681,39.322,66.763L169.475,512h43.695v-15.125h-24.846l4.249-19.143h71.994v-15.125h-68.637l8.417-37.918
	l-3.134-2.947c-16.612-15.626-29.901-37.585-38.435-63.51c-4.556-13.813-7.631-28.336-9.202-43.27h75.718v-34.267h27.709v34.267
	h66.526v-34.267h36.079c0.131,2.949,0.197,6.091,0.197,9.572c0,17.95-2.07,35.548-6.147,52.405H247.432v15.125h101.93
	c-8.486,25.908-21.976,48.369-38.57,63.939l-3.142,2.947l16.025,72.192h-84.806v15.125h103.656l-18.261-82.269
	c19.096-19.206,34.12-46.484,42.52-77.34c5.406-19.882,8.146-40.783,8.146-62.123c0-6.745-0.226-12.381-0.709-17.732
	c-1.453-21.209-5.649-41.448-12.455-60.207l38.864-38.864V68.535H400.63z M126.492,167.2v-83.54h60.301l9.787,59.009
	c-16.336,13.444-30.057,32.065-40.184,54.436L126.492,167.2z M308.404,265.571v34.267h-36.277v-34.267h-57.959v34.267H152.39
	c-0.131-2.948-0.198-6.091-0.198-9.571c0-21.289,2.827-41.752,8.409-60.972h103.963v-15.125h-98.883
	c0.136-0.349,0.261-0.685,0.401-1.041c10.056-26.241,25.014-47.43,43.257-61.276l3.635-2.759l-12.312-74.248l-4.264-25.456h119.2
	l-4.266,25.468l-12.311,74.236l3.635,2.759c18.243,13.846,33.202,35.035,43.276,61.323c6.379,16.314,10.573,33.905,12.508,52.394
	H308.404z"/>
    <g>
	<rect x="281.7" y="462.612" style="fill:#FFFFFF;" width="17.134" height="15.125"/>
        <rect x="281.7" y="214.175" style="fill:#FFFFFF;" width="17.134" height="15.125"/>
</g>
    <g>
	<rect x="315.963" y="214.175" style="fill:#231F20;" width="17.133" height="15.125"/>
        <rect x="213.166" y="342.674" style="fill:#231F20;" width="17.133" height="15.125"/>
</g>
    <rect x="178.893" y="342.674" style="fill:#FFFFFF;" width="17.133" height="15.125"/>
    <g>
</g>
    <g>
</g>
    <g>
</g>
    <g>
</g>
    <g>
</g>
    <g>
</g>
    <g>
</g>
    <g>
</g>
    <g>
</g>
    <g>
</g>
    <g>
</g>
    <g>
</g>
    <g>
</g>
    <g>
</g>
    <g>
</g>
</svg>
